<svg width="1028" height="1028" viewBox="0 0 1028 1028" fill="none" xmlns="http://www.w3.org/2000/svg">
<g clip-path="url(#clip0_1_9)">
<rect width="1028" height="1028" fill="white"/>
<path d="M404.015 577.5L514 387L623.985 577.5H404.015Z" stroke="#376A80"/>
<path d="M386.707 514L514 386.707L641.293 514L514 641.293L386.707 514Z" stroke="#274BA8"/>
<path d="M392.853 474.637L514 386.618L635.147 474.637L588.873 617.054H439.127L392.853 474.637Z" stroke="#415B9D"/>
<path d="M403.649 450.289L514 386.577L624.351 450.289V577.711L514 641.423L403.649 577.711V450.289Z" stroke="#613CB0"/>
<path d="M414.359 434.539L514 386.555L613.641 434.539L638.25 542.359L569.296 628.824H458.704L389.75 542.359L414.359 434.539Z" stroke="#5200FF"/>
<path d="M423.873 423.873L514 386.541L604.127 423.873L641.459 514L604.127 604.127L514 641.459L423.873 604.127L386.541 514L423.873 423.873Z" stroke="#86197B"/>
<path d="M68.729 767.5L513 -2.00005L957.271 767.5L68.729 767.5Z" stroke="#376A80"/>
<path d="M-0.29287 511L513 -2.29287L1026.29 511L513 1024.29L-0.29287 511Z" stroke="#274BA8"/>
<path d="M24.7447 352.356L513 -2.38197L1001.26 352.356L814.758 926.335L211.242 926.335L24.7447 352.356Z" stroke="#415B9D"/>
<path d="M68.3629 254.289L513 -2.42265L957.637 254.289L957.637 767.711L513 1024.42L68.3629 767.711L68.3629 254.289Z" stroke="#613CB0"/>
<path d="M111.572 190.872L513 -2.44505L914.427 190.872L1013.57 625.252L735.775 973.598L290.225 973.598L12.4281 625.252L111.572 190.872Z" stroke="#5200FF"/>
<path d="M149.93 147.93L513 -2.4588L876.07 147.93L1026.46 511L876.07 874.07L513 1024.46L149.93 874.07L-0.458802 511L149.93 147.93Z" stroke="#86197B"/>
<path d="M293.164 641.5L514 259L734.836 641.5H293.164Z" stroke="#376A80"/>
<path d="M258.707 514L514 258.707L769.293 514L514 769.293L258.707 514Z" stroke="#274BA8"/>
<path d="M271.117 435.083L514 258.618L756.883 435.083L664.11 720.608H363.89L271.117 435.083Z" stroke="#415B9D"/>
<path d="M292.798 386.289L514 258.577L735.203 386.289V641.711L514 769.423L292.798 641.711L292.798 386.289Z" stroke="#613CB0"/>
<path d="M314.285 354.733L514 258.555L713.715 354.733L763.04 570.842L624.833 744.148H403.167L264.96 570.842L314.285 354.733Z" stroke="#5200FF"/>
<path d="M333.363 333.363L514 258.541L694.637 333.363L769.459 514L694.637 694.637L514 769.459L333.363 694.637L258.541 514L333.363 333.363Z" stroke="#86197B"/>
<path d="M633.715 739.152L259.155 505.101L649.129 297.748L633.715 739.152Z" stroke="#376A80"/>
<path d="M505.09 769.137L258.863 505.09L522.91 258.863L769.137 522.91L505.09 769.137Z" stroke="#274BA8"/>
<path d="M426.654 753.981L258.774 505.087L443.607 268.511L725.721 371.192L715.244 671.229L426.654 753.981Z" stroke="#415B9D"/>
<path d="M378.647 730.611L258.733 505.086L394.086 288.475L649.353 297.389L769.267 522.914L633.914 739.525L378.647 730.611Z" stroke="#613CB0"/>
<path d="M347.86 708.035L258.711 505.085L361.8 308.848L579.499 267.095L747.876 411.266L740.14 632.798L562.116 764.873L347.86 708.035Z" stroke="#5200FF"/>
<path d="M327.169 688.222L258.697 505.085L339.778 327.169L522.915 258.697L700.831 339.778L769.303 522.915L688.222 700.831L505.085 769.303L327.169 688.222Z" stroke="#86197B"/>
<path d="M743.192 402.215L496.212 768.379L302.595 371.406L743.192 402.215Z" stroke="#376A80"/>
<path d="M768.671 531.808L496.192 768.671L259.329 496.192L531.808 259.329L768.671 531.808Z" stroke="#274BA8"/>
<path d="M750.786 609.668L496.185 768.76L266.204 575.783L378.668 297.424L678.156 318.366L750.786 609.668Z" stroke="#415B9D"/>
<path d="M725.755 656.831L496.183 768.8L284.428 625.97L302.245 371.169L531.817 259.2L743.572 402.03L725.755 656.831Z" stroke="#613CB0"/>
<path d="M702.119 686.811L496.181 768.823L303.662 658.948L269.531 439.924L419.491 276.681L640.618 292.144L766.399 474.669L702.119 686.811Z" stroke="#5200FF"/>
<path d="M681.596 706.797L496.18 768.837L321.203 681.596L259.163 496.18L346.404 321.203L531.82 259.163L706.797 346.404L768.837 531.82L681.596 706.797Z" stroke="#86197B"/>
<path d="M410.282 281.046L767.603 540.655L364.115 720.299L410.282 281.046Z" stroke="#376A80"/>
<path d="M540.685 260.106L767.894 540.685L487.315 767.894L260.106 487.315L540.685 260.106Z" stroke="#274BA8"/>
<path d="M617.873 280.697L767.983 540.695L567.097 763.801L292.833 641.691L324.214 343.116L617.873 280.697Z" stroke="#415B9D"/>
<path d="M664.134 307.359L768.023 540.699L617.89 747.34L363.866 720.641L259.977 487.301L410.11 280.66L664.134 307.359Z" stroke="#613CB0"/>
<path d="M693.271 332.027L768.046 540.701L651.519 729.269L431.438 755.735L273.527 600.169L296.698 379.717L483.501 260.382L693.271 332.027Z" stroke="#5200FF"/>
<path d="M712.529 353.235L768.059 540.703L674.765 712.529L487.297 768.059L315.471 674.765L259.941 487.297L353.235 315.471L540.703 259.941L712.529 353.235Z" stroke="#86197B"/>
<path d="M277.568 609.525L549.489 261.482L714.943 670.994L277.568 609.525Z" stroke="#376A80"/>
<path d="M261.192 478.47L549.53 261.192L766.808 549.53L478.47 766.808L261.192 478.47Z" stroke="#274BA8"/>
<path d="M284.464 402.048L549.542 261.103L765.502 469.653L633.895 739.489L336.597 697.706L284.464 402.048Z" stroke="#415B9D"/>
<path d="M312.724 356.746L549.548 261.063L750.824 418.317L715.276 671.254L478.452 766.937L277.176 609.683L312.724 356.746Z" stroke="#613CB0"/>
<path d="M338.394 328.488L549.551 261.041L733.937 384.078L752.706 604.948L591.724 757.333L372.215 726.483L259.472 535.629L338.394 328.488Z" stroke="#5200FF"/>
<path d="M360.261 309.982L549.553 261.027L718.018 360.261L766.973 549.553L667.739 718.018L478.447 766.973L309.982 667.739L261.027 478.447L360.261 309.982Z" stroke="#86197B"/>
<path d="M162.955 886.446L362.833 20.6772L1012.67 626.661L162.955 886.446Z" stroke="#376A80"/>
<path d="M21.9553 661.334L362.747 20.3972L1003.68 361.189L662.892 1002.13L21.9553 661.334Z" stroke="#274BA8"/>
<path d="M-0.484079 502.302L362.721 20.312L933.358 216.798L922.825 820.223L345.679 996.674L-0.484079 502.302Z" stroke="#415B9D"/>
<path d="M12.556 395.767L362.709 20.2731L862.973 135.768L1013.08 626.757L662.93 1002.25L162.666 886.755L12.556 395.767Z" stroke="#613CB0"/>
<path d="M35.3364 322.488L362.703 20.2516L803.11 87.7559L1024.92 474.169L861.111 888.513L435.029 1018.78L67.5245 766.875L35.3364 322.488Z" stroke="#5200FF"/>
<path d="M59.4625 270.207L362.699 20.2385L753.874 57.9044L1003.84 361.141L966.177 752.316L662.941 1002.28L271.765 964.619L21.7966 661.382L59.4625 270.207Z" stroke="#86197B"/>
<path d="M287.666 971.781L225.684 85.4038L1024.3 474.915L287.666 971.781Z" stroke="#376A80"/>
<path d="M87.0114 797.73L225.521 85.1611L938.089 223.67L799.58 936.239L87.0114 797.73Z" stroke="#274BA8"/>
<path d="M19.056 652.207L225.471 85.0872L828.62 106.15L994.972 686.287L494.634 1023.77L19.056 652.207Z" stroke="#415B9D"/>
<path d="M0.378474 546.515L225.448 85.0535L737.62 49.2389L1024.72 474.886L799.653 936.347L287.481 972.161L0.378474 546.515Z" stroke="#613CB0"/>
<path d="M0.738829 469.778L225.436 85.0349L666.336 20.8268L991.432 325.503L955.921 769.637L586.543 1018.79L161.447 885.336L0.738829 469.778Z" stroke="#5200FF"/>
<path d="M8.52533 412.728L225.428 85.0235L610.523 6.675L938.227 223.578L1016.58 608.673L799.673 936.377L414.578 1014.73L86.8738 797.823L8.52533 412.728Z" stroke="#86197B"/>
<path d="M432.673 1017.7L114.248 188.176L991.85 327.175L432.673 1017.7Z" stroke="#376A80"/>
<path d="M189.898 909.921L114.02 187.992L835.949 112.114L911.827 834.043L189.898 909.921Z" stroke="#274BA8"/>
<path d="M82.3654 790.625L113.951 187.936L696.903 31.7343L1025.6 537.886L645.797 1006.91L82.3654 790.625Z" stroke="#415B9D"/>
<path d="M33.6024 695.012L113.919 187.91L593.241 3.91605L992.245 327.023L911.928 834.125L432.607 1018.12L33.6024 695.012Z" stroke="#613CB0"/>
<path d="M11.5112 621.522L113.902 187.896L516.764 -2.41299L916.734 193.902L1012.63 629.011L732.233 975.269L286.694 971.936L11.5112 621.522Z" stroke="#5200FF"/>
<path d="M2.27766 564.689L113.891 187.888L459.253 0.371585L836.054 111.985L1023.57 457.347L911.956 834.148L566.595 1021.66L189.794 910.05L2.27766 564.689Z" stroke="#86197B"/>
<path d="M584.516 1018.98L37.4749 318.802L917.37 195.141L584.516 1018.98Z" stroke="#376A80"/>
<path d="M320.837 986.892L37.2034 318.692L705.403 35.0584L989.037 703.258L320.837 986.892Z" stroke="#274BA8"/>
<path d="M183.125 904.249L37.1208 318.659L548.932 -1.15615L1011.25 386.777L785.171 946.348L183.125 904.249Z" stroke="#415B9D"/>
<path d="M108.538 827.07L37.0831 318.644L441.666 2.54914L917.703 194.881L989.158 703.307L584.575 1019.4L108.538 827.07Z" stroke="#613CB0"/>
<path d="M65.9256 763.25L37.0623 318.635L366.68 18.8562L806.571 89.6528L1025.49 477.714L858.581 890.821L431.536 1017.9L65.9256 763.25Z" stroke="#5200FF"/>
<path d="M40.479 711.6L37.0496 318.63L312.496 38.3339L705.465 34.9045L985.762 310.351L989.191 703.32L713.745 983.617L320.775 987.046L40.479 711.6Z" stroke="#86197B"/>
<path d="M729.645 975.69L1.79419 466.043L807.087 90.5289L729.645 975.69Z" stroke="#376A80"/>
<path d="M468.106 1022.09L1.50249 466.018L557.579 -0.585598L1024.18 555.49L468.106 1022.09Z" stroke="#274BA8"/>
<path d="M312.248 983.325L1.41373 466.01L397.356 10.53L952.896 246.343L900.296 847.563L312.248 983.325Z" stroke="#415B9D"/>
<path d="M218.355 931.325L1.3732 466.006L295.86 45.435L807.329 90.1828L1024.31 555.502L729.824 976.073L218.355 931.325Z" stroke="#613CB0"/>
<path d="M158.946 882.753L1.35089 466.004L228.919 82.9531L670.287 22.0447L993.096 329.144L954.264 773L583.032 1019.38L158.946 882.753Z" stroke="#5200FF"/>
<path d="M119.51 840.799L1.33719 466.003L182.797 117.422L557.593 -0.750982L906.174 180.709L1024.35 555.505L842.887 904.086L468.091 1022.26L119.51 840.799Z" stroke="#86197B"/>
<path d="M856.165 891.599L11.1115 617.024L671.427 22.4735L856.165 891.599Z" stroke="#376A80"/>
<path d="M619.621 1012.44L10.8251 617.085L406.182 8.2894L1014.98 403.646L619.621 1012.44Z" stroke="#274BA8"/>
<path d="M459.238 1020.94L10.7379 617.104L256.21 65.7638L856.421 128.848L981.899 719.177L459.238 1020.94Z" stroke="#415B9D"/>
<path d="M354.245 998.659L10.6981 617.112L169.354 128.818L671.558 22.0716L1015.1 403.619L856.448 891.913L354.245 998.659Z" stroke="#613CB0"/>
<path d="M283.231 969.579L10.6762 617.117L116.308 184.269L520.582 -3.02197L919.073 196.279L1011.71 632.093L728.732 976.244L283.231 969.579Z" stroke="#5200FF"/>
<path d="M233.252 940.988L10.6628 617.12L82.2785 230.716L406.147 8.12701L792.551 79.7428L1015.14 403.611L943.524 790.015L619.655 1012.6L233.252 940.988Z" stroke="#86197B"/>
<path d="M952.089 774.468L63.6824 758.961L521.315 -2.66871L952.089 774.468Z" stroke="#376A80"/>
<path d="M761.212 959.189L63.4263 759.103L263.513 61.3172L961.298 261.404L761.212 959.189Z" stroke="#274BA8"/>
<path d="M610.32 1014.2L63.3484 759.146L136.899 160.128L729.327 44.9712L1021.92 572.819L610.32 1014.2Z" stroke="#415B9D"/>
<path d="M503.402 1023.6L63.3128 759.166L72.2732 245.821L521.323 -3.09126L961.412 261.341L952.452 774.685L503.402 1023.6Z" stroke="#613CB0"/>
<path d="M426.988 1016.55L63.2932 759.176L37.7564 314.358L369.608 17.0526L808.956 91.1375L1024.96 480.825L854.972 892.673L426.988 1016.55Z" stroke="#5200FF"/>
<path d="M370.834 1003.82L63.2812 759.183L18.7941 368.725L263.433 61.172L653.891 16.6849L961.444 261.323L1005.93 651.782L761.292 959.334L370.834 1003.82Z" stroke="#86197B"/>
<path d="M1010.08 635.311L155.954 880.226L370.912 18.0776L1010.08 635.311Z" stroke="#376A80"/>
<path d="M881.546 867.768L155.751 880.437L143.082 154.642L868.877 141.973L881.546 867.768Z" stroke="#274BA8"/>
<path d="M753.332 964.494L155.689 880.501L50.8891 286.153L583.763 2.81912L1017.9 422.057L753.332 964.494Z" stroke="#415B9D"/>
<path d="M653.832 1004.74L155.66 880.53L14.1419 386.997L370.795 17.6713L868.967 141.879L1010.49 635.413L653.832 1004.74Z" stroke="#613CB0"/>
<path d="M578.697 1020.34L155.645 880.546L1.17153 462.631L231.599 81.2923L673.41 23.6869L993.913 333.193L951.761 776.745L578.697 1020.34Z" stroke="#5200FF"/>
<path d="M521.275 1024.59L155.635 880.556L-1.06694 520.166L142.962 154.526L503.353 -2.17574L868.992 141.853L1025.69 502.244L881.665 867.883L521.275 1024.59Z" stroke="#86197B"/>
<path d="M1024.67 484.823L279.477 968.758L232.974 81.4334L1024.67 484.823Z" stroke="#376A80"/>
<path d="M969.721 744.702L279.344 969.019L55.0265 278.641L745.404 54.3242L969.721 744.702Z" stroke="#274BA8"/>
<path d="M875.39 874.687L279.303 969.098L5.31235 431.361L432.063 4.6101L969.8 278.601L875.39 874.687Z" stroke="#415B9D"/>
<path d="M792.004 942.264L279.285 969.134L-0.345336 538.542L232.744 81.079L745.463 54.2085L1025.09 484.801L792.004 942.264Z" stroke="#613CB0"/>
<path d="M724.713 979.152L279.275 969.154L9.36428 614.663L118.23 182.617L523.895 -1.64429L920.883 200.632L1010.26 637.127L724.713 979.152Z" stroke="#5200FF"/>
<path d="M671.041 1000L279.268 969.167L24.0453 670.339L54.8785 278.566L353.706 23.3431L745.479 54.1763L1000.7 353.004L969.869 744.777L671.041 1000Z" stroke="#86197B"/>
<path d="M994.126 335.097L422.982 1015.76L119.083 180.804L994.126 335.097Z" stroke="#376A80"/>
<path d="M1017.56 599.686L422.932 1016.05L6.56918 421.421L601.196 5.05884L1017.56 599.686Z" stroke="#274BA8"/>
<path d="M965.353 751.572L422.916 1016.14L3.67819 582.003L287.012 49.129L881.36 153.929L965.353 751.572Z" stroke="#415B9D"/>
<path d="M905.369 840.575L422.909 1016.18L29.6044 686.155L118.759 180.532L601.219 4.93093L994.523 334.953L905.369 840.575Z" stroke="#613CB0"/>
<path d="M851.803 895.525L422.905 1016.2L61.1455 756.111L38.9366 311.114L373.002 16.2989L811.784 93.668L1024.87 484.961L851.803 895.525Z" stroke="#5200FF"/>
<path d="M806.572 931.154L422.903 1016.21L91.463 805.061L6.40568 421.392L217.556 89.9528L601.225 4.89534L932.665 216.046L1017.72 599.715L806.572 931.154Z" stroke="#86197B"/>
<path d="M922.89 201.741L575.709 1019.65L40.9713 310.027L922.89 201.741Z" stroke="#376A80"/>
<path d="M1022.66 447.917L575.745 1019.94L3.72355 573.027L450.636 1.00523L1022.66 447.917Z" stroke="#274BA8"/>
<path d="M1017.14 608.43L575.756 1020.03L47.9083 727.437L163.065 135.008L762.083 61.4581L1017.14 608.43Z" stroke="#415B9D"/>
<path d="M985.798 711.082L575.761 1020.07L103.153 819.458L40.5823 309.862L450.62 0.87632L923.228 201.487L985.798 711.082Z" stroke="#613CB0"/>
<path d="M950.64 779.292L575.764 1020.09L153.769 877.135L2.42588 458.076L235.699 78.4717L677.929 24.1727L996.107 336.067L950.64 779.292Z" stroke="#5200FF"/>
<path d="M917.801 826.589L575.765 1020.1L197.074 915.083L3.55877 573.047L108.579 194.355L450.616 0.840457L829.307 105.861L1022.82 447.897L917.801 826.589Z" stroke="#86197B"/>
<path d="M813.909 95.4745L721.031 979.149L2.18524 456.877L813.909 95.4745Z" stroke="#376A80"/>
<path d="M981.291 301.725L721.15 979.417L43.4587 719.275L303.6 41.5839L981.291 301.725Z" stroke="#274BA8"/>
<path d="M1022.94 456.837L721.186 979.498L130.858 854.02L67.7733 253.809L619.113 8.33697L1022.94 456.837Z" stroke="#415B9D"/>
<path d="M1022.99 564.168L721.203 979.535L210.593 925.868L1.76494 456.833L303.547 41.4653L814.157 95.1326L1022.99 564.168Z" stroke="#613CB0"/>
<path d="M1009.3 639.676L721.212 979.556L275.861 966.227L8.60934 609.726L120.704 178.507L527.735 -2.71496L923.2 202.525L1009.3 639.676Z" stroke="#5200FF"/>
<path d="M991.73 694.507L721.218 979.568L328.368 989.855L43.3071 719.343L33.02 326.493L303.533 41.4323L696.382 31.1451L981.443 301.658L991.73 694.507Z" stroke="#86197B"/>
<path d="M679.881 26.2426L849.423 898.46L9.29007 609.179L679.881 26.2426Z" stroke="#376A80"/>
<path d="M900.252 174.543L849.615 898.681L125.478 848.044L176.114 123.907L900.252 174.543Z" stroke="#274BA8"/>
<path d="M985.436 310.699L849.674 898.748L248.454 951.348L12.6409 395.808L468.121 -0.134804L985.436 310.699Z" stroke="#415B9D"/>
<path d="M1016.85 413.328L849.7 898.779L345.711 996.744L8.8752 609.259L176.029 123.809L680.019 25.8429L1016.85 413.328Z" stroke="#613CB0"/>
<path d="M1025.85 489.537L849.715 898.796L419.926 1016.26L60.1223 753.471L41.2425 308.32L377.504 16.0126L815.695 96.6616L1025.85 489.537Z" stroke="#5200FF"/>
<path d="M1025.07 547.111L849.724 898.806L477.048 1023.5L125.353 848.153L0.656808 475.477L176.006 123.781L548.682 -0.914491L900.377 174.434L1025.07 547.111Z" stroke="#86197B"/>
<path d="M531.628 -1.16929L948.773 783.367L60.7726 752.357L531.628 -1.16929Z" stroke="#376A80"/>
<path d="M785.729 76.2212L949.022 783.522L241.721 946.815L78.4277 239.514L785.729 76.2212Z" stroke="#274BA8"/>
<path d="M906.998 181.523L949.097 783.569L389.526 1009.65L1.59335 547.33L321.408 35.5187L906.998 181.523Z" stroke="#415B9D"/>
<path d="M967.05 270.481L949.132 783.591L495.807 1024.63L60.3994 752.556L78.3176 239.446L531.643 -1.59171L967.05 270.481Z" stroke="#613CB0"/>
<path d="M997.933 340.73L949.151 783.603L572.484 1021.59L151.571 875.483L3.3664 455.303L239.472 77.4543L682.096 26.4647L997.933 340.73Z" stroke="#5200FF"/>
<path d="M1014.02 396.015L949.163 783.61L629.228 1011.82L241.633 946.956L13.4258 627.021L78.2869 239.426L398.222 11.2193L785.816 76.0805L1014.02 396.015Z" stroke="#86197B"/>
<path d="M379.707 14.9329L1008 643.227L149.735 873.199L379.707 14.9329Z" stroke="#376A80"/>
<path d="M645.331 14.65L1008.28 643.303L379.631 1006.26L16.6783 377.603L645.331 14.65Z" stroke="#274BA8"/>
<path d="M792.089 79.8945L1008.37 643.326L539.349 1023.13L33.1977 694.433L189.399 111.48L792.089 79.8945Z" stroke="#415B9D"/>
<path d="M875.526 147.408L1008.41 643.336L645.365 1006.38L149.436 873.498L16.5528 377.569L379.598 14.5247L875.526 147.408Z" stroke="#613CB0"/>
<path d="M925.598 205.559L1008.43 643.342L717.804 981.057L272.564 964.398L7.98719 605.908L123.304 175.539L531.679 -2.63309L925.598 205.559Z" stroke="#5200FF"/>
<path d="M957.149 253.723L1008.44 643.346L769.21 955.121L379.588 1006.42L67.8127 767.182L16.5179 377.56L255.752 65.7845L645.374 14.4898L957.149 253.723Z" stroke="#86197B"/>
<path d="M240.403 75.5765L1024.94 492.722L271.413 963.577L240.403 75.5765Z" stroke="#376A80"/>
<path d="M494.338 -2.35496L1025.23 492.712L530.165 1023.61L-0.728719 528.539L494.338 -2.35496Z" stroke="#274BA8"/>
<path d="M653.759 17.1308L1025.32 492.708L687.838 993.046L107.701 826.695L86.6385 223.546L653.759 17.1308Z" stroke="#415B9D"/>
<path d="M753.289 57.2999L1025.36 492.707L784.324 946.032L271.214 963.951L-0.858523 528.543L240.179 75.2181L753.289 57.2999Z" stroke="#613CB0"/>
<path d="M818.175 98.27L1025.38 492.706L846.194 900.636L415.538 1014.88L57.71 749.409L42.1605 304.13L380.599 14.3456L818.175 98.27Z" stroke="#5200FF"/>
<path d="M862.43 135.105L1025.4 492.706L887.771 860.803L530.171 1023.77L162.073 886.145L-0.894634 528.545L136.731 160.447L494.332 -2.52079L862.43 135.105Z" stroke="#86197B"/>
<path d="M125.179 174.78L997.397 344.322L414.46 1014.91L125.179 174.78Z" stroke="#376A80"/>
<path d="M345.234 26.0106L997.673 344.227L679.457 996.667L27.0175 678.45L345.234 26.0106Z" stroke="#274BA8"/>
<path d="M503.386 -1.9652L997.758 344.198L821.306 921.344L217.882 931.876L21.3958 361.24L503.386 -1.9652Z" stroke="#415B9D"/>
<path d="M610.311 7.34894L997.796 344.185L899.83 848.174L414.38 1015.33L26.8947 678.493L124.86 174.503L610.311 7.34894Z" stroke="#613CB0"/>
<path d="M684.34 27.558L997.817 344.177L945.724 786.672L567.288 1021.84L147.479 872.584L2.42184 451.307L241.348 75.2354L684.34 27.558Z" stroke="#5200FF"/>
<path d="M737.431 49.8449L997.83 344.173L973.839 736.424L679.511 996.823L287.26 972.832L26.8606 678.504L50.8517 286.253L345.18 25.8537L737.431 49.8449Z" stroke="#86197B"/>
<path d="M44.638 302.3L928.313 209.423L566.91 1021.15L44.638 302.3Z" stroke="#376A80"/>
<path d="M211.581 95.6937L928.55 209.25L814.993 926.219L98.0242 812.662L211.581 95.6937Z" stroke="#274BA8"/>
<path d="M354.643 22.7011L928.622 209.198L928.622 812.715L354.643 999.212L-0.0951136 510.956L354.643 22.7011Z" stroke="#415B9D"/>
<path d="M459.62 0.346276L928.655 209.174L982.322 719.784L566.954 1021.57L97.9192 812.739L44.2519 302.129L459.62 0.346276Z" stroke="#613CB0"/>
<path d="M536.323 -1.97169L928.673 209.161L1008.23 647.552L715.084 983.083L269.981 963.094L8.09308 602.636L126.626 173.141L536.323 -1.97169Z" stroke="#5200FF"/>
<path d="M593.61 3.81909L928.684 209.153L1020.42 591.279L815.09 926.353L432.964 1018.09L97.8899 812.76L6.14954 430.634L211.483 95.5595L593.61 3.81909Z" stroke="#86197B"/>
<path d="M3.98956 448.313L821.897 101.132L713.611 983.051L3.98956 448.313Z" stroke="#376A80"/>
<path d="M103.232 201.924L822.073 100.898L923.1 819.739L204.258 920.766L103.232 201.924Z" stroke="#274BA8"/>
<path d="M218.702 90.2937L822.127 100.826L998.578 677.972L504.206 1024.14L22.2161 660.93L218.702 90.2937Z" stroke="#415B9D"/>
<path d="M312.556 38.2235L822.151 100.794L1022.76 573.402L713.776 983.44L204.18 920.869L3.57003 448.261L312.556 38.2235Z" stroke="#613CB0"/>
<path d="M385.229 13.5811L822.165 100.776L1026.42 496.751L844.181 903.329L412.684 1014.35L56.8509 746.209L44.6325 300.826L385.229 13.5811Z" stroke="#5200FF"/>
<path d="M441.706 2.36973L822.173 100.765L1021.63 439.372L923.232 819.839L584.625 1019.29L204.159 920.898L4.70386 582.291L103.099 201.824L441.706 2.36973Z" stroke="#86197B"/>
<path d="M7.99727 599.882L688.66 28.738L842.954 903.781L7.99727 599.882Z" stroke="#376A80"/>
<path d="M30.8661 335.244L688.76 28.4628L995.541 686.357L337.647 993.138L30.8661 335.244Z" stroke="#274BA8"/>
<path d="M108.653 194.731L688.791 28.3791L1026.27 528.717L654.711 1004.29L87.5907 797.88L108.653 194.731Z" stroke="#415B9D"/>
<path d="M183.182 117.496L688.805 28.3409L1018.83 421.645L843.225 904.105L337.603 993.26L7.58102 599.955L183.182 117.496Z" stroke="#613CB0"/>
<path d="M245.475 72.6824L688.812 28.3198L999.912 347.275L944.511 789.368L564.326 1021.69L145.645 869.307L3.74337 446.957L245.475 72.6824Z" stroke="#5200FF"/>
<path d="M296.207 45.4487L688.817 28.3069L978.555 293.803L995.697 686.414L730.201 976.152L337.59 993.294L47.8519 727.798L30.7102 335.187L296.207 45.4487Z" stroke="#86197B"/>
<path d="M56.3085 744.093L540.243 -1.10074L943.633 790.596L56.3085 744.093Z" stroke="#376A80"/>
<path d="M0.805479 484.333L540.259 -1.39316L1025.98 538.06L486.531 1023.79L0.805479 484.333Z" stroke="#274BA8"/>
<path d="M34.1115 327.217L540.263 -1.48214L1009.28 378.323L793.003 941.755L190.313 910.169L34.1115 327.217Z" stroke="#415B9D"/>
<path d="M82.8024 231.566L540.265 -1.52276L970.858 278.107L943.987 790.826L486.524 1023.92L55.932 744.285L82.8024 231.566Z" stroke="#613CB0"/>
<path d="M129.272 170.498L540.267 -1.54513L931.026 212.516L1007.3 651.49L711.655 984.82L266.714 961.501L7.52952 599.094L129.272 170.498Z" stroke="#5200FF"/>
<path d="M169.824 129.622L540.267 -1.55886L894.969 167.625L1026.15 538.069L856.966 892.771L486.523 1023.95L131.821 854.767L0.639774 484.324L169.824 129.622Z" stroke="#86197B"/>
</g>
<defs>
<clipPath id="clip0_1_9">
<rect width="1028" height="1028" fill="white"/>
</clipPath>
</defs>
</svg>
